<?xml version="1.0" standalone="no"?><!DOCTYPE svg PUBLIC "-//W3C//DTD SVG 1.1//EN" "http://www.w3.org/Graphics/SVG/1.1/DTD/svg11.dtd"><svg class="icon" width="16px" height="16.00px" viewBox="0 0 1024 1024" version="1.1" xmlns="http://www.w3.org/2000/svg"><path fill="#ffffff" d="M954.181818 896 70.469818 896c-38.493091 0-69.818182-31.325091-69.818182-69.818182l0-581.818182c0-38.493091 31.325091-69.818182 69.818182-69.818182L954.181818 174.545455c38.493091 0 69.818182 31.325091 69.818182 69.818182l0 581.818182C1024 864.674909 992.674909 896 954.181818 896zM70.469818 221.090909c-12.846545 0-23.272727 10.449455-23.272727 23.272727l0 581.818182c0 12.823273 10.426182 23.272727 23.272727 23.272727L954.181818 849.454545c12.846545 0 23.272727-10.449455 23.272727-23.272727l0-581.818182c0-12.823273-10.426182-23.272727-23.272727-23.272727L70.469818 221.090909zM537.134545 628.363636c-5.841455 0-11.682909-2.187636-16.174545-6.562909-9.239273-8.936727-9.472-23.668364-0.535273-32.907636l394.426182-407.272727c8.983273-9.262545 23.738182-9.425455 32.907636-0.512 9.239273 8.936727 9.472 23.668364 0.535273 32.907636l-394.426182 407.272727C549.306182 625.989818 543.208727 628.363636 537.134545 628.363636zM537.134545 628.363636c-5.376 0-10.798545-1.861818-15.173818-5.632L206.568727 351.301818c-9.751273-8.378182-10.845091-23.086545-2.443636-32.814545 8.378182-9.797818 23.086545-10.845091 32.814545-2.443636l315.392 271.429818c9.751273 8.378182 10.845091 23.086545 2.443636 32.814545C550.190545 625.617455 543.650909 628.363636 537.134545 628.363636z" /></svg>