<?xml version="1.0" standalone="no"?><!DOCTYPE svg PUBLIC "-//W3C//DTD SVG 1.1//EN" "http://www.w3.org/Graphics/SVG/1.1/DTD/svg11.dtd"><svg class="icon" width="16px" height="16.00px" viewBox="0 0 1024 1024" version="1.1" xmlns="http://www.w3.org/2000/svg"><path fill="#dbdbdb" d="M936.688 423.406l-320.625-351.563c-12.656-12.656-33.75-12.656-46.406 0-7.031 7.031-9.844 16.875-8.438 26.719l0 188.438c-267.188 0-482.344 216.563-482.344 482.344 0 68.906 14.063 133.594 39.375 192.656 37.969-201.094 229.219-352.969 441.563-352.969 0 11.25 0 188.438 0 188.438-1.406 9.844 1.406 19.688 8.438 26.719 0 0 0 0 0 0 5.625 5.625 14.063 9.844 22.5 9.844 9.844 0 18.281-4.219 23.906-12.656l319.219-350.156c7.031-7.031 9.844-15.469 9.844-23.906 2.813-8.438 0-16.875-7.031-23.906zM624.5 717.313l0-172.969c0 0-75.938 0-97.031 0-133.594 0-316.406 104.063-385.313 194.063 1.406-120.938 158.906-379.688 385.313-386.719 16.875 0 97.031 0 97.031 0l0-172.969 246.094 270-246.094 268.594z" /></svg>