<?xml version="1.0" standalone="no"?><!DOCTYPE svg PUBLIC "-//W3C//DTD SVG 1.1//EN" "http://www.w3.org/Graphics/SVG/1.1/DTD/svg11.dtd"><svg class="icon" width="16px" height="16.00px" viewBox="0 0 1024 1024" version="1.1" xmlns="http://www.w3.org/2000/svg"><path fill="#000000" d="M512 1014.784c-277.504 0-502.784-225.28-502.784-502.784 0-277.504 225.28-502.784 502.784-502.784 277.504 0 502.784 225.28 502.784 502.784C1014.784 789.504 789.504 1014.784 512 1014.784zM512 40.96C251.904 40.96 40.96 251.904 40.96 512c0 260.096 211.968 471.04 471.04 471.04 260.096 0 471.04-211.968 471.04-471.04C983.04 251.904 772.096 40.96 512 40.96zM395.264 731.136 395.264 292.864 775.168 512 395.264 731.136zM436.224 362.496l0 299.008L694.272 512 436.224 362.496z" /></svg>