<?xml version="1.0" standalone="no"?><!DOCTYPE svg PUBLIC "-//W3C//DTD SVG 1.1//EN" "http://www.w3.org/Graphics/SVG/1.1/DTD/svg11.dtd"><svg class="icon" width="16px" height="16.00px" viewBox="0 0 1024 1024" version="1.1" xmlns="http://www.w3.org/2000/svg"><path fill="#dbdbdb" d="M512 821.326769c-30.247385 0-54.902154 23.394462-54.902154 52.145231 0 28.750769 24.654769 52.224 54.902154 52.224 30.247385 0 54.902154-23.473231 54.902154-52.224 0-28.750769-24.654769-52.145231-54.902154-52.145231zM783.596308 0H240.403692C194.717538 0 157.538462 35.367385 157.538462 78.769231v866.461538c0 43.401846 37.179077 78.769231 82.86523 78.769231h543.192616C829.282462 1024 866.461538 988.632615 866.461538 945.230769V78.769231c0-43.401846-37.179077-78.769231-82.86523-78.769231zM240.403692 52.539077h543.192616c15.202462 0 27.569231 11.815385 27.56923 26.230154v649.137231H212.834462V78.769231c0-14.493538 12.445538-26.230154 27.648-26.230154z m543.192616 918.921846H240.403692A27.017846 27.017846 0 0 1 212.834462 945.230769V784.935385h598.409846V945.230769a27.017846 27.017846 0 0 1-27.648 26.230154z" /></svg>