<?xml version="1.0" standalone="no"?><!DOCTYPE svg PUBLIC "-//W3C//DTD SVG 1.1//EN" "http://www.w3.org/Graphics/SVG/1.1/DTD/svg11.dtd"><svg class="icon" width="16px" height="16.00px" viewBox="0 0 1024 1024" version="1.1" xmlns="http://www.w3.org/2000/svg"><path fill="#ffffff" d="M951.398021 881.661237 745.308684 675.5719c49.322274-64.05756 78.895173-144.078345 78.895173-231.159788 0-209.773159-170.069751-379.84291-379.84291-379.84291-209.773159 0-379.84291 170.069751-379.84291 379.84291s170.069751 379.84291 379.84291 379.84291c87.081443 0 167.102228-29.675227 231.159788-78.895173l206.089337 206.089337c10.130509 10.130509 26.503048 10.130509 36.633557 0l33.052064-33.052064C961.52853 908.164285 961.52853 891.791746 951.398021 881.661237zM444.360947 746.792445c-166.795243 0-302.380334-135.687419-302.380334-302.380334s135.687419-302.380334 302.380334-302.380334S746.843609 277.616868 746.843609 444.309783 611.156191 746.792445 444.360947 746.792445z" /></svg>