<?xml version="1.0" standalone="no"?><!DOCTYPE svg PUBLIC "-//W3C//DTD SVG 1.1//EN" "http://www.w3.org/Graphics/SVG/1.1/DTD/svg11.dtd"><svg class="icon" width="16px" height="12.57px" viewBox="0 0 1303 1024" version="1.1" xmlns="http://www.w3.org/2000/svg"><path fill="#ffffff" d="M1117.090909 1024H186.181818a186.181818 186.181818 0 0 1-186.181818-186.181818V186.181818a186.181818 186.181818 0 0 1 186.181818-186.181818h930.909091a186.181818 186.181818 0 0 1 186.181818 186.181818v651.636364a186.181818 186.181818 0 0 1-186.181818 186.181818zM248.273455 93.090909l340.433454 340.712727a93.090909 93.090909 0 0 0 131.630546 0L1061.236364 93.090909H248.738909zM1210.181818 186.181818a90.856727 90.856727 0 0 0-62.370909-86.574545 86.760727 86.760727 0 0 1 24.482909 13.963636L786.152727 498.967273a186.181818 186.181818 0 0 1-263.261091 0L134.423273 110.778182a171.938909 171.938909 0 0 1 22.434909-12.101818A93.090909 93.090909 0 0 0 93.090909 186.181818v651.636364a93.090909 93.090909 0 0 0 93.090909 93.090909h930.909091a93.090909 93.090909 0 0 0 93.090909-93.090909V186.181818z" /></svg>