<?xml version="1.0" standalone="no"?><!DOCTYPE svg PUBLIC "-//W3C//DTD SVG 1.1//EN" "http://www.w3.org/Graphics/SVG/1.1/DTD/svg11.dtd"><svg class="icon" width="16px" height="14.49px" viewBox="0 0 1131 1024" version="1.1" xmlns="http://www.w3.org/2000/svg"><path fill="#dbdbdb" d="M1123.889946 545.447022a26.024932 26.024932 0 0 1-18.37371 7.489577 25.997992 25.997992 0 0 1-18.346769-7.489577L597.087121 63.824126a44.371702 44.371702 0 0 0-31.332294-12.769998c-11.827066 0-22.953667 4.526075-31.332295 12.769998L44.367127 545.447022a26.267401 26.267401 0 0 1-36.74742 0 25.189764 25.189764 0 0 1 0-36.100838L497.702053 27.696347A96.502389 96.502389 0 0 1 565.754827 0.001078a96.448507 96.448507 0 0 1 68.052773 27.695269l490.082346 481.649837c10.156728 9.968142 10.156728 26.132696 0 36.100838z m-172.960731-248.17979a25.782464 25.782464 0 0 1-25.97105-25.539996V187.56379c0-11.342129-4.499134-21.983794-12.662235-30.01219a43.240183 43.240183 0 0 0-30.524066-12.446706H796.126667a25.728582 25.728582 0 0 1-25.971051-25.513055c0-14.117044 11.611538-25.539996 25.971051-25.539996h85.645197c25.405291 0 49.301891 9.725674 67.271487 27.398919a92.057137 92.057137 0 0 1 27.856915 66.113028v84.163446a25.755523 25.755523 0 0 1-25.971051 25.539996zM151.026245 490.137306c14.359512 0 25.997992 11.422952 25.997991 25.539995v412.788836c0 11.800125 4.66078 22.926726 13.174112 31.278413 8.486391 8.351686 19.801579 12.931643 31.817231 12.931643h199.928596v-241.094328c0-14.090103 11.611538-25.539996 25.971051-25.539996h235.679202c14.359512 0 25.997992 11.449893 25.997991 25.539996v241.094328h202.245516c11.396011 0 22.118498-4.337489 30.173834-12.25812 8.055336-7.920632 12.473648-18.454533 12.473648-29.661958V515.677301c0-14.117044 11.638479-25.539996 25.997992-25.539995 14.332571 0 25.971051 11.422952 25.97105 25.539995v415.078814c0 24.839532-9.833437 48.197313-27.72221 65.762796A94.805111 94.805111 0 0 1 911.837935 1023.756185h-228.243507a25.782464 25.782464 0 0 1-25.971051-25.539996v-241.094328h-183.737101v241.094328a25.755523 25.755523 0 0 1-25.97105 25.539996H222.015579a97.175912 97.175912 0 0 1-68.564651-27.910797 93.808297 93.808297 0 0 1-28.395734-67.379251V515.677301c0-14.117044 11.638479-25.539996 25.971051-25.539995z" /></svg>